<svg id="visual" viewBox="0 0 960 540" width="960" height="540" xmlns="http://www.w3.org/2000/svg" xmlns:xlink="http://www.w3.org/1999/xlink" version="1.1"><g stroke-width="1" stroke-linejoin="bevel" style="filter: brightness(0.5)"><path d="M508 222L599 255L563 123Z" fill="#8e355e" stroke="#8e355e"></path><path d="M563 123L460 114L508 222Z" fill="#f97516" stroke="#f97516"></path><path d="M599 255L708 227L563 123Z" fill="#de4b48" stroke="#de4b48"></path><path d="M456 333L603 349L599 255Z" fill="#70335a" stroke="#70335a"></path><path d="M599 255L735 333L708 227Z" fill="#8e355e" stroke="#8e355e"></path><path d="M374 207L456 333L508 222Z" fill="#532f50" stroke="#532f50"></path><path d="M508 222L456 333L599 255Z" fill="#8e355e" stroke="#8e355e"></path><path d="M747 114L586 0L563 123Z" fill="#c73f54" stroke="#c73f54"></path><path d="M563 123L489 0L460 114Z" fill="#c73f54" stroke="#c73f54"></path><path d="M708 227L747 114L563 123Z" fill="#26212f" stroke="#26212f"></path><path d="M460 114L374 207L508 222Z" fill="#ac385c" stroke="#ac385c"></path><path d="M586 0L489 0L563 123Z" fill="#f97516" stroke="#f97516"></path><path d="M460 114L345 116L374 207Z" fill="#de4b48" stroke="#de4b48"></path><path d="M603 349L735 333L599 255Z" fill="#70335a" stroke="#70335a"></path><path d="M867 247L864 134L747 114Z" fill="#8e355e" stroke="#8e355e"></path><path d="M374 207L382 327L456 333Z" fill="#f97516" stroke="#f97516"></path><path d="M456 333L487 417L603 349Z" fill="#c73f54" stroke="#c73f54"></path><path d="M341 0L345 116L460 114Z" fill="#c73f54" stroke="#c73f54"></path><path d="M374 207L276 300L382 327Z" fill="#ef5e35" stroke="#ef5e35"></path><path d="M370 425L487 417L456 333Z" fill="#18181b" stroke="#18181b"></path><path d="M603 349L751 409L735 333Z" fill="#392942" stroke="#392942"></path><path d="M487 417L591 436L603 349Z" fill="#392942" stroke="#392942"></path><path d="M747 114L731 0L586 0Z" fill="#8e355e" stroke="#8e355e"></path><path d="M591 436L751 409L603 349Z" fill="#c73f54" stroke="#c73f54"></path><path d="M867 247L747 114L708 227Z" fill="#392942" stroke="#392942"></path><path d="M489 0L341 0L460 114Z" fill="#392942" stroke="#392942"></path><path d="M867 247L708 227L735 333Z" fill="#18181b" stroke="#18181b"></path><path d="M747 114L803 0L731 0Z" fill="#18181b" stroke="#18181b"></path><path d="M864 134L803 0L747 114Z" fill="#70335a" stroke="#70335a"></path><path d="M861 354L867 247L735 333Z" fill="#de4b48" stroke="#de4b48"></path><path d="M382 327L370 425L456 333Z" fill="#18181b" stroke="#18181b"></path><path d="M457 540L634 540L591 436Z" fill="#392942" stroke="#392942"></path><path d="M276 300L370 425L382 327Z" fill="#532f50" stroke="#532f50"></path><path d="M231 189L374 207L345 116Z" fill="#de4b48" stroke="#de4b48"></path><path d="M231 189L276 300L374 207Z" fill="#8e355e" stroke="#8e355e"></path><path d="M751 409L818 408L735 333Z" fill="#70335a" stroke="#70335a"></path><path d="M851 540L818 408L751 409Z" fill="#ac385c" stroke="#ac385c"></path><path d="M818 408L861 354L735 333Z" fill="#c73f54" stroke="#c73f54"></path><path d="M213 73L231 189L345 116Z" fill="#532f50" stroke="#532f50"></path><path d="M457 540L591 436L487 417Z" fill="#8e355e" stroke="#8e355e"></path><path d="M591 436L695 540L751 409Z" fill="#de4b48" stroke="#de4b48"></path><path d="M341 0L270 0L345 116Z" fill="#ac385c" stroke="#ac385c"></path><path d="M370 425L457 540L487 417Z" fill="#ac385c" stroke="#ac385c"></path><path d="M634 540L695 540L591 436Z" fill="#ef5e35" stroke="#ef5e35"></path><path d="M270 0L213 73L345 116Z" fill="#de4b48" stroke="#de4b48"></path><path d="M960 311L960 229L867 247Z" fill="#18181b" stroke="#18181b"></path><path d="M867 247L960 229L864 134Z" fill="#ac385c" stroke="#ac385c"></path><path d="M864 134L960 70L803 0Z" fill="#f97516" stroke="#f97516"></path><path d="M960 424L960 311L861 354Z" fill="#c73f54" stroke="#c73f54"></path><path d="M861 354L960 311L867 247Z" fill="#de4b48" stroke="#de4b48"></path><path d="M960 424L861 354L818 408Z" fill="#ef5e35" stroke="#ef5e35"></path><path d="M155 254L256 452L276 300Z" fill="#532f50" stroke="#532f50"></path><path d="M276 300L256 452L370 425Z" fill="#ac385c" stroke="#ac385c"></path><path d="M370 425L340 540L457 540Z" fill="#ef5e35" stroke="#ef5e35"></path><path d="M155 254L276 300L231 189Z" fill="#f97516" stroke="#f97516"></path><path d="M960 229L960 70L864 134Z" fill="#532f50" stroke="#532f50"></path><path d="M256 452L340 540L370 425Z" fill="#392942" stroke="#392942"></path><path d="M151 139L155 254L231 189Z" fill="#8e355e" stroke="#8e355e"></path><path d="M131 0L151 139L213 73Z" fill="#f97516" stroke="#f97516"></path><path d="M213 73L151 139L231 189Z" fill="#de4b48" stroke="#de4b48"></path><path d="M960 70L960 0L803 0Z" fill="#70335a" stroke="#70335a"></path><path d="M695 540L851 540L751 409Z" fill="#392942" stroke="#392942"></path><path d="M851 540L960 424L818 408Z" fill="#70335a" stroke="#70335a"></path><path d="M270 0L131 0L213 73Z" fill="#f97516" stroke="#f97516"></path><path d="M0 186L81 310L155 254Z" fill="#532f50" stroke="#532f50"></path><path d="M89 469L209 540L256 452Z" fill="#70335a" stroke="#70335a"></path><path d="M256 452L209 540L340 540Z" fill="#ef5e35" stroke="#ef5e35"></path><path d="M0 186L155 254L151 139Z" fill="#532f50" stroke="#532f50"></path><path d="M155 254L81 310L256 452Z" fill="#18181b" stroke="#18181b"></path><path d="M851 540L960 540L960 424Z" fill="#18181b" stroke="#18181b"></path><path d="M81 310L89 469L256 452Z" fill="#f97516" stroke="#f97516"></path><path d="M0 71L0 186L151 139Z" fill="#de4b48" stroke="#de4b48"></path><path d="M81 310L0 464L89 469Z" fill="#392942" stroke="#392942"></path><path d="M89 469L118 540L209 540Z" fill="#f97516" stroke="#f97516"></path><path d="M131 0L0 71L151 139Z" fill="#392942" stroke="#392942"></path><path d="M0 186L0 318L81 310Z" fill="#f97516" stroke="#f97516"></path><path d="M89 469L0 540L118 540Z" fill="#392942" stroke="#392942"></path><path d="M131 0L0 0L0 71Z" fill="#532f50" stroke="#532f50"></path><path d="M0 318L0 464L81 310Z" fill="#392942" stroke="#392942"></path><path d="M0 464L0 540L89 469Z" fill="#8e355e" stroke="#8e355e"></path></g></svg>