<svg id="visual" viewBox="0 0 540 960" width="540" height="960" xmlns="http://www.w3.org/2000/svg" xmlns:xlink="http://www.w3.org/1999/xlink" version="1.1"><rect width="540" height="960" fill="#101015"></rect><g><g transform="translate(485 282)"><path d="M0 -144L72 -124.7L124.7 -72L144 0L124.7 72L72 124.7L0 144L-72 124.7L-124.7 72L-144 0L-124.7 -72L-72 -124.7Z" fill="#fb923c"></path></g><g transform="translate(352 806)"><path d="M0 -86L43 -74.5L74.5 -43L86 0L74.5 43L43 74.5L0 86L-43 74.5L-74.5 43L-86 0L-74.5 -43L-43 -74.5Z" fill="#fb923c"></path></g><g transform="translate(45 549)"><path d="M0 -108L54 -93.5L93.5 -54L108 0L93.5 54L54 93.5L0 108L-54 93.5L-93.5 54L-108 0L-93.5 -54L-54 -93.5Z" fill="#fb923c"></path></g></g></svg>